<?xml version="1.0" standalone="no"?>
<!DOCTYPE svg PUBLIC "-//W3C//DTD SVG 20010904//EN"
 "http://www.w3.org/TR/2001/REC-SVG-20010904/DTD/svg10.dtd">
<svg version="1.0" xmlns="http://www.w3.org/2000/svg"
 width="1024.000000pt" height="1024.000000pt" viewBox="0 0 1024.000000 1024.000000"
 preserveAspectRatio="xMidYMid meet">

<g transform="translate(0.000000,1024.000000) scale(0.100000,-0.100000)"
fill="#000000" stroke="none">
<path d="M2110 8947 c0 -7 74 -163 225 -472 59 -121 154 -317 210 -435 57
-118 160 -334 230 -480 194 -404 215 -464 235 -661 8 -82 10 -573 7 -1764 -3
-1630 -4 -1651 -24 -1750 -52 -248 -157 -538 -338 -935 -172 -375 -222 -490
-215 -490 11 0 972 648 1387 934 56 39 199 136 317 216 118 80 215 149 216
153 0 4 -40 46 -89 93 -97 92 -158 178 -193 269 l-23 60 -3 850 c-1 468 -1
928 0 1024 l3 174 215 -224 c118 -123 386 -404 595 -624 1160 -1219 1245
-1309 1625 -1710 151 -159 394 -414 540 -565 146 -152 429 -448 630 -658 200
-210 368 -382 372 -382 12 0 -62 177 -372 895 -326 754 -408 1033 -440 1497
-7 101 -12 696 -13 1675 -2 1409 -1 1524 15 1603 39 187 93 313 412 955 113
226 203 412 201 413 -2 2 -169 -110 -372 -249 -616 -423 -722 -495 -1248 -849
-132 -89 -268 -182 -303 -207 l-63 -45 93 -88 c106 -99 153 -171 182 -274 19
-68 20 -110 24 -860 2 -434 1 -795 -3 -803 -4 -11 -39 18 -128 103 -852 826
-2167 2052 -3107 2899 -190 171 -401 362 -470 425 -218 201 -330 298 -330 287z"/>
</g>
</svg>
